<svg xmlns="http://www.w3.org/2000/svg" xmlns:xlink="http://www.w3.org/1999/xlink" viewBox="0 0 440 888"><defs><filter x="-40%" y="-5.9%" width="180%" height="111.8%" filterUnits="objectBoundingBox" id="d"><feGaussianBlur stdDeviation="2" in="SourceAlpha" result="shadowBlurInner1"/><feOffset in="shadowBlurInner1" result="shadowOffsetInner1"/><feComposite in="shadowOffsetInner1" in2="SourceAlpha" operator="arithmetic" k2="-1" k3="1" result="shadowInnerInner1"/><feColorMatrix values="0 0 0 0 0.0941176471 0 0 0 0 0.0901960784 0 0 0 0 0.109803922 0 0 0 0.7 0" in="shadowInnerInner1"/></filter><filter x="-40%" y="-2.9%" width="180%" height="105.9%" filterUnits="objectBoundingBox" id="g"><feGaussianBlur stdDeviation="2" in="SourceAlpha" result="shadowBlurInner1"/><feOffset in="shadowBlurInner1" result="shadowOffsetInner1"/><feComposite in="shadowOffsetInner1" in2="SourceAlpha" operator="arithmetic" k2="-1" k3="1" result="shadowInnerInner1"/><feColorMatrix values="0 0 0 0 0.0941176471 0 0 0 0 0.0901960784 0 0 0 0 0.109803922 0 0 0 0.7 0" in="shadowInnerInner1"/></filter><filter x="-40%" y="-2.9%" width="180%" height="105.9%" filterUnits="objectBoundingBox" id="i"><feGaussianBlur stdDeviation="2" in="SourceAlpha" result="shadowBlurInner1"/><feOffset in="shadowBlurInner1" result="shadowOffsetInner1"/><feComposite in="shadowOffsetInner1" in2="SourceAlpha" operator="arithmetic" k2="-1" k3="1" result="shadowInnerInner1"/><feColorMatrix values="0 0 0 0 0.0941176471 0 0 0 0 0.0901960784 0 0 0 0 0.109803922 0 0 0 0.7 0" in="shadowInnerInner1"/></filter><filter x="-16.1%" y="-8.3%" width="132.1%" height="116.7%" filterUnits="objectBoundingBox" id="n"><feGaussianBlur stdDeviation=".5" in="SourceAlpha" result="shadowBlurInner1"/><feOffset in="shadowBlurInner1" result="shadowOffsetInner1"/><feComposite in="shadowOffsetInner1" in2="SourceAlpha" operator="arithmetic" k2="-1" k3="1" result="shadowInnerInner1"/><feColorMatrix values="0 0 0 0 0 0 0 0 0 0 0 0 0 0 0 0 0 0 0.5 0" in="shadowInnerInner1"/></filter><filter x="-16.1%" y="-8.3%" width="132.1%" height="116.7%" filterUnits="objectBoundingBox" id="p"><feGaussianBlur stdDeviation=".5" in="SourceAlpha" result="shadowBlurInner1"/><feOffset in="shadowBlurInner1" result="shadowOffsetInner1"/><feComposite in="shadowOffsetInner1" in2="SourceAlpha" operator="arithmetic" k2="-1" k3="1" result="shadowInnerInner1"/><feColorMatrix values="0 0 0 0 0 0 0 0 0 0 0 0 0 0 0 0 0 0 0.5 0" in="shadowInnerInner1"/></filter><path d="M1.92 140.5h1.16c.67 0 .9.07 1.15.2.25.13.44.32.57.57.13.24.2.48.2 1.15v30.16c0 .67-.07.9-.2 1.15-.13.25-.32.44-.57.57-.24.13-.48.2-1.15.2H1.92c-.67 0-.9-.07-1.15-.2a1.36 1.36 0 01-.57-.57c-.13-.24-.2-.48-.2-1.15v-30.16c0-.67.07-.9.2-1.15.13-.25.32-.44.57-.57.24-.13.48-.2 1.15-.2z" id="c"/><path d="M1.92 204.5h1.16c.67 0 .9.07 1.15.2.25.13.44.32.57.57.13.24.2.48.2 1.15v64.16c0 .67-.07.9-.2 1.15-.13.25-.32.44-.57.57-.24.13-.48.2-1.15.2H1.92c-.67 0-.9-.07-1.15-.2a1.36 1.36 0 01-.57-.57c-.13-.24-.2-.48-.2-1.15v-64.16c0-.67.07-.9.2-1.15.13-.25.32-.44.57-.57.24-.13.48-.2 1.15-.2z" id="f"/><path d="M1.92 288.5h1.16c.67 0 .9.07 1.15.2.25.13.44.32.57.57.13.24.2.48.2 1.15v64.16c0 .67-.07.9-.2 1.15-.13.25-.32.44-.57.57-.24.13-.48.2-1.15.2H1.92c-.67 0-.9-.07-1.15-.2a1.36 1.36 0 01-.57-.57c-.13-.24-.2-.48-.2-1.15v-64.16c0-.67.07-.9.2-1.15.13-.25.32-.44.57-.57.24-.13.48-.2 1.15-.2z" id="h"/><path d="M5.61 6C7 6 8.11 4.66 8.11 3S7 0 5.61 0s0 1.5 0 3.16c0 1.66-1.38 2.84 0 2.84z" id="m"/><path d="M.61 6C2 6 3.11 4.66 3.11 3S2 0 .61 0s0 1.5 0 3.16C.61 4.82-.77 6 .61 6z" id="o"/><linearGradient x1="100%" y1="50%" x2="34.03%" y2="50%" id="a"><stop stop-color="#242627" offset="0%"/><stop stop-color="#2E3030" offset="15.86%"/><stop stop-color="#121214" offset="30.83%"/><stop stop-color="#202121" offset="41.55%"/><stop stop-color="#202020" offset="100%"/></linearGradient><linearGradient x1="100%" y1="50%" x2="34.03%" y2="50%" id="b"><stop stop-color="#242526" offset="0%"/><stop stop-color="#212122" offset="35.78%"/><stop stop-color="#606061" offset="47.91%"/><stop stop-color="#606061" offset="53.87%"/><stop stop-color="#212122" offset="62.7%"/><stop stop-color="#222223" offset="100%"/></linearGradient><linearGradient x1="100%" y1="50%" x2="34.03%" y2="50%" id="e"><stop stop-color="#242526" offset="0%"/><stop stop-color="#212122" offset="35.78%"/><stop stop-color="#606061" offset="47.91%"/><stop stop-color="#606061" offset="53.87%"/><stop stop-color="#212122" offset="62.7%"/><stop stop-color="#222223" offset="100%"/></linearGradient><linearGradient x1="26.97%" y1="15.31%" x2="74.92%" y2="92.47%" id="k"><stop stop-color="#010005" stop-opacity=".66" offset="0%"/><stop stop-color="#2E2D31" offset="100%"/></linearGradient><radialGradient cx="24.8%" cy="50%" fx="24.8%" fy="50%" r="123.55%" gradientTransform="matrix(0 .51894 -.79225 0 .64 .37)" id="l"><stop stop-color="#1F85DE" offset="0%"/><stop stop-color="#1B75C9" offset="25.79%"/><stop stop-color="#000232" offset="100%"/></radialGradient><circle id="j" cx="67" cy="6" r="6"/></defs><g fill="none" fill-rule="evenodd"><path d="M436.92 226.5h1.16c.67 0 .9.07 1.15.2.25.13.44.32.57.57.13.24.2.48.2 1.15v103.16c0 .67-.07.9-.2 1.15-.13.25-.32.44-.57.57-.24.13-.48.2-1.15.2h-1.16c-.67 0-.9-.07-1.15-.2a1.36 1.36 0 01-.57-.57c-.13-.24-.2-.48-.2-1.15V228.42c0-.67.07-.9.2-1.15.13-.25.32-.44.57-.57.24-.13.48-.2 1.15-.2z" fill="url(#a)"/><g transform="matrix(-1 0 0 1 5 0)"><use fill="url(#b)" xlink:href="#c"/><use fill="#000" filter="url(#d)" xlink:href="#c"/></g><g transform="matrix(-1 0 0 1 5 0)"><use fill="url(#e)" xlink:href="#f"/><use fill="#000" filter="url(#g)" xlink:href="#f"/></g><g transform="matrix(-1 0 0 1 5 0)"><use fill="url(#e)" xlink:href="#h"/><use fill="#000" filter="url(#i)" xlink:href="#h"/></g><path d="M403.24 9.32a59.97 59.97 0 0124.94 24.94C433.94 45.02 437 55.7 437 85.11v717.78c0 29.42-3.06 40.09-8.82 50.85a59.97 59.97 0 01-24.94 24.94c-10.76 5.76-21.43 8.82-50.85 8.82H87.61c-29.42 0-40.09-3.06-50.85-8.82a59.97 59.97 0 01-24.94-24.94c-5.7-10.65-8.76-21.21-8.82-49.97V85.1c0-29.42 3.06-40.09 8.82-50.85A59.97 59.97 0 0136.76 9.32C47.41 3.62 57.97.56 86.73.5H352.4c29.42 0 40.09 3.06 50.85 8.82zM110 21.5H82.03c-17.82.04-25.38 1.78-32.07 5.02l-.49.24-1.45.75a40.89 40.89 0 00-17.76 18.46l-.24.5C26.74 53.22 25 60.88 25 79.18v729.28c.04 17.82 1.78 25.38 5.02 32.07l.24.49.75 1.45a40.89 40.89 0 0018.46 17.76l.5.24c6.76 3.28 14.42 5.02 32.72 5.02H357.3c18.3 0 25.96-1.74 32.73-5.02l.49-.24 1.45-.75a40.89 40.89 0 0017.76-18.46l.24-.5c3.28-6.76 5.02-14.42 5.02-32.72V79.2c0-18.3-1.74-25.96-5.02-32.73l-.24-.49-.75-1.45a40.89 40.89 0 00-18.46-17.76l-.5-.24c-6.76-3.28-14.42-5.02-32.72-5.02h-27.77c-1 .04-1.78.27-2.44.67a4.32 4.32 0 00-1.67 1.89c-.39.81-.6 1.14-.6 2.44 0 5.99-1.06 9.47-3.06 13.21-2 3.75-4.93 6.68-8.67 8.69-3.65 1.95-7.71 3.01-14.76 3.06H141.87c-7.06-.05-11.12-1.11-14.77-3.06-3.74-2-6.67-4.94-8.67-8.69-2-3.74-3.06-7.2-3.07-13.21 0-1.3-.22-1.63-.63-2.45a4.44 4.44 0 00-1.8-1.88 5.57 5.57 0 00-2.63-.67h-.3z" fill="#373739"/><path d="M86.48 5h267.04c27.64 0 37.66 2.88 47.76 8.28a56.34 56.34 0 0123.44 23.44c5.4 10.1 8.28 20.12 8.28 47.76v720.04c0 27.64-2.88 37.66-8.28 47.76a56.34 56.34 0 01-23.44 23.44c-10.1 5.4-20.12 8.28-47.76 8.28H86.48c-27.64 0-37.66-2.88-47.76-8.28a56.34 56.34 0 01-23.44-23.44C9.88 842.18 7 832.16 7 804.52V84.48c0-27.64 2.88-37.66 8.28-47.76a56.34 56.34 0 0123.44-23.44C48.82 7.88 58.84 5 86.48 5z" stroke="#0A0A0B"/><path d="M399.28 15.28a56.34 56.34 0 0123.44 23.44c5.4 10.1 8.28 20.12 8.28 47.76v716.04c0 27.64-2.88 37.66-8.28 47.76a56.34 56.34 0 01-23.44 23.44c-10.1 5.4-20.12 8.28-47.76 8.28H88.48c-27.64 0-37.66-2.88-47.76-8.28a56.34 56.34 0 01-23.44-23.44c-5.35-10-8.22-19.92-8.28-46.94V86.48c0-27.64 2.88-37.66 8.28-47.76a56.34 56.34 0 0123.44-23.44c10-5.35 19.92-8.22 46.94-8.28h263.86c27.64 0 37.66 2.88 47.76 8.28zM110 22H82.03c-17.82.04-25.38 1.78-32.07 5.02l-.49.24-1.45.75a40.89 40.89 0 00-17.76 18.46l-.24.5C26.74 53.72 25 61.38 25 79.68v729.28c.04 17.82 1.78 25.38 5.02 32.07l.24.49.75 1.45a40.89 40.89 0 0018.46 17.76l.5.24c6.76 3.28 14.42 5.02 32.72 5.02H357.3c18.3 0 25.96-1.74 32.73-5.02l.49-.24 1.45-.75a40.89 40.89 0 0017.76-18.46l.24-.5c3.28-6.76 5.02-14.42 5.02-32.72V79.7c0-18.3-1.74-25.96-5.02-32.73l-.24-.49-.75-1.45a40.89 40.89 0 00-18.46-17.76l-.5-.24c-6.76-3.28-14.42-5.02-32.72-5.02h-27.77c-1 .04-1.78.27-2.44.67a4.32 4.32 0 00-1.67 1.89c-.39.81-.6 1.14-.6 2.44 0 5.99-1.06 9.47-3.06 13.21-2 3.75-4.93 6.68-8.67 8.69-3.65 1.95-7.71 3.01-14.76 3.06H141.87c-7.06-.05-11.12-1.11-14.77-3.06-3.74-2-6.67-4.94-8.67-8.69-2-3.74-3.06-7.2-3.07-13.21 0-1.3-.22-1.63-.63-2.45a4.44 4.44 0 00-1.8-1.88 5.57 5.57 0 00-2.63-.67h-.3z" fill="#010005"/><path d="M110.3 21.5c1.08.04 1.91.27 2.63.67a4.44 4.44 0 011.8 1.88c.41.82.63 1.16.63 2.45 0 6 1.07 9.47 3.07 13.21 2 3.75 4.93 6.68 8.67 8.69 3.74 2 7.92 3.06 15.31 3.06h155.93c7.05-.05 11.11-1.11 14.76-3.06 3.74-2 6.67-4.94 8.67-8.69 2-3.74 3.06-7.22 3.06-13.21 0-1.3.21-1.63.6-2.44.38-.82.95-1.46 1.67-1.9a5.06 5.06 0 012.72-.66h27.5c18.29 0 25.95 1.74 32.72 5.02l.49.24 1.45.75a40.89 40.89 0 0117.76 18.46l.24.5c3.28 6.76 5.02 14.42 5.02 32.72V807.8c0 18.3-1.74 25.96-5.02 32.73l-.24.49-.75 1.45a40.89 40.89 0 01-18.46 17.76l-.5.24c-6.76 3.28-14.42 5.02-32.72 5.02H82.7c-18.3 0-25.96-1.74-32.73-5.02l-.49-.24-1.45-.75a40.89 40.89 0 01-17.76-18.46l-.24-.5c-3.24-6.68-4.98-14.24-5.02-32.06V79.19c0-18.3 1.74-25.96 5.02-32.73l.24-.49.75-1.45a40.89 40.89 0 0118.46-17.76l.5-.24c6.68-3.24 14.24-4.98 32.06-5.02H110z" stroke-opacity=".5" stroke="#010005" stroke-width="1.5"/><g opacity=".5" transform="translate(195 27.5)"><use stroke-opacity=".25" stroke="#A0A9BB" xlink:href="#j"/><use stroke="url(#k)" xlink:href="#j"/></g><g transform="translate(258 30.5)"><use fill="url(#l)" xlink:href="#m"/><use fill="#000" filter="url(#n)" xlink:href="#m"/></g><g transform="matrix(-1 0 0 1 261.11 30.5)"><use fill="url(#l)" xlink:href="#o"/><use fill="#000" filter="url(#p)" xlink:href="#o"/></g><path d="M198 30.5h42a3 3 0 010 6h-42a3 3 0 110-6z" fill="#0F1013"/></g></svg>