<svg width="636" height="144" viewBox="0 0 636 144" fill="none" xmlns="http://www.w3.org/2000/svg">
<path d="M74.7185 22.2812C59.2937 11.52 45.8808 5.74282 30.2395 6.71501L30.1966 6.71767L30.1538 6.721C13.7531 7.99524 4.43748 17.1124 1.5726 27.8675L1.55993 27.9151L1.55166 27.9636C-3.69179 58.7188 29.3854 68.2333 53.1427 59.3413C66.111 54.4875 76.5309 45.7129 86.1235 37.6349C87.5444 36.4383 88.9473 35.257 90.3375 34.106C101.214 25.1007 111.241 18.0192 123.391 18.8822C136.209 19.7927 147.422 25.1382 151.549 37.5359C158.215 57.5552 149.255 76.6581 134.333 93.275C119.578 109.705 100.078 123.482 84.0327 131.164C68.491 122.952 36.0185 101.598 16.1128 71.094C14.4502 68.5463 11.0268 67.8221 8.46601 69.4747C5.90443 71.1278 5.17463 74.5342 6.8377 77.0828C29.2409 111.415 65.9546 134.58 81.4707 142.219L83.8305 143.381L86.2247 142.291C124.092 125.047 177.616 80.8402 162.046 34.0778C156.435 17.2228 140.897 8.81189 123.869 7.60227C108.227 6.4912 91.5501 18.2932 80.4307 27.8899C70.7668 36.2304 61.0235 44.6395 49.2486 49.0466C42.2251 51.6754 31.427 52.1998 23.1567 49.4172C11.1436 45.3754 7.20466 30.7372 17.7067 22.3187C32.1054 10.7766 53.8285 21.4179 66.567 30.0473L67.2578 30.5152L75.8548 23.0739L74.7185 22.2812Z" fill="#5E26ED"/>
<path d="M99.4786 36.1486L98.8346 35.8054L89.694 43.3806L91.0946 44.1418C92.7082 45.0188 94.3423 45.8952 95.9786 46.7562C100.999 49.3981 106.114 51.9339 110.784 53.9121C115.337 55.8408 119.91 57.4352 123.709 57.8863C126.623 58.2323 129.479 56.5128 129.854 53.3861C130.323 48.6242 124.4 47.4046 120.944 46.1465C119.263 45.5347 117.317 44.7242 115.117 43.7921C109.788 41.5347 104.618 38.8876 99.4786 36.1486Z" fill="#5E26ED"/>
<path d="M429.138 0.770991C425.576 0.560335 420.548 3.08824 417.406 6.45878C416.358 7.51208 415.939 8.98667 415.939 10.8826C415.939 14.4638 419.082 17.6237 422.643 17.6237C427.252 17.6237 431.023 15.9384 434.166 12.3572C435.213 11.3039 435.632 9.82932 435.632 7.93339C435.632 3.93087 433.118 0.981647 429.138 0.770991Z" fill="#5E26ED"/>
<path fill-rule="evenodd" clip-rule="evenodd" d="M593.142 37.0043C612.207 37.0043 626.453 47.9586 634.204 68.8138L569.888 90.7223C572.193 96.4101 574.916 101.045 577.849 104.626C584.762 113.263 595.237 118.529 605.503 118.529C614.93 118.529 622.472 115.159 628.129 108.418C630.224 106.1 631.9 104.836 632.947 104.836C634.623 104.836 635.461 105.679 635.461 107.154C635.461 109.05 633.366 111.999 628.967 116.001C619.958 124.006 609.064 128.009 596.704 128.009C584.553 128.009 574.078 124.006 565.279 116.212C555.642 107.575 550.824 96.6207 550.824 83.5599C550.824 70.9204 554.804 60.1767 562.556 51.1184C570.936 41.6388 581.201 37.0043 593.142 37.0043ZM566.536 70.499C566.536 74.9229 567.165 79.5573 568.212 84.8238L606.969 71.763C612.626 69.8671 613.464 69.0244 613.464 67.3392C613.464 65.4432 612.207 62.2833 609.483 57.8595C603.827 47.7479 596.704 42.6921 588.324 42.6921C581.41 42.6921 575.754 45.852 571.145 52.1717C568.003 56.3849 566.536 62.494 566.536 70.499Z" fill="#5E26ED"/>
<path d="M432.464 34.4592C434.148 34.4592 434.358 35.3058 434.358 40.3854V104.092C434.358 116.156 435.201 118.273 441.096 120.178C444.19 121.067 448.277 120.957 451.379 120.178C457.274 118.273 458.117 116.156 458.117 104.092V63.032C458.117 57.7408 457.906 54.566 457.274 53.5077C456.853 52.4495 455.169 51.3913 452.222 50.333C451.379 50.1214 450.958 49.2747 450.958 48.0048C450.958 46.7349 451.8 45.6767 453.695 44.6184L468.433 36.364C470.328 35.3058 471.802 34.6709 472.644 34.6709C474.118 34.6709 474.96 36.5757 474.96 40.3854V54.3544C485.697 42.0786 496.435 35.9407 506.962 35.9407C514.752 35.9407 522.753 39.9621 526.753 45.6767C528.648 48.6398 530.332 54.1427 531.385 61.9738L537.701 105.997C538.543 112.347 539.806 116.156 541.28 117.638C541.912 118.273 544.017 119.119 547.596 119.966C548.86 120.389 549.491 121.236 549.491 122.294C549.491 124.199 548.228 125.257 545.491 125.257H516.647C512.647 125.257 511.594 124.834 511.594 122.506C511.594 121.448 512.436 120.601 513.91 120.178C516.647 119.119 518.331 118.273 518.963 117.638C520.437 116.368 521.068 114.463 521.068 112.135C521.068 110.019 520.858 107.267 520.226 103.669L515.173 66.8417C514.331 59.8573 513.068 54.9893 511.173 52.4495C508.436 48.6398 504.436 46.7349 499.172 46.7349C490.119 46.7349 480.645 53.7194 474.96 63.8786V104.092C474.96 116.156 475.802 118.273 481.697 120.178C483.382 120.601 484.224 121.448 484.224 122.718C484.224 124.411 482.75 125.257 480.013 125.257H412.041C409.304 125.257 407.83 124.411 407.83 122.718C407.83 121.448 408.672 120.601 410.357 120.178C416.252 118.273 417.094 116.156 417.094 104.092V59.6456C417.094 53.0845 416.462 52.0262 411.199 50.1213C410.146 49.698 409.725 48.8514 409.725 47.7932C409.725 46.5233 410.988 45.2534 413.304 44.1951L428.042 36.1524C430.148 35.0942 431.621 34.4592 432.464 34.4592Z" fill="#5E26ED"/>
<path d="M274.686 59.9476C271.905 53.03 270.147 49.8144 267.839 48.0017C263.717 46.2656 245.977 47.5333 234.483 48.3546C232.825 48.4731 231.297 48.5823 229.959 48.6718V103.765C229.959 108.82 230.587 112.402 231.635 114.719C233.311 117.879 236.244 119.353 240.433 119.353C244.414 119.353 248.185 117.879 251.956 114.929C253.003 113.876 254.051 113.244 254.679 113.244C256.146 113.244 256.774 114.087 256.774 115.772C256.774 118.511 254.051 121.249 248.813 123.988C243.576 126.726 238.338 127.99 232.682 127.99C220.741 127.99 212.57 121.46 212.57 111.559L213.199 92.1783V48.3613H207.542C205.238 48.3613 203.981 47.5187 203.981 45.8334C203.981 44.5695 205.028 43.3055 207.333 41.8309C215.294 35.5112 220.741 26.2422 223.883 14.2346C224.512 11.9174 225.769 10.6534 227.235 10.6534C229.121 10.6534 229.959 12.5493 229.959 16.3412V40.3563H294.589C297.103 40.3563 298.36 41.1989 298.36 42.8842C298.36 44.1481 297.312 45.2014 295.217 45.8334C291.656 46.8867 289.77 48.7826 289.77 51.7319C289.77 52.9958 290.818 55.945 292.703 60.7902L312.815 109.663L328.109 65.6353L324.547 56.7877C321.405 48.572 320.148 47.5187 314.91 45.8334C313.025 45.2014 311.977 44.3588 311.977 42.8842C311.977 41.1989 313.653 40.3563 316.796 40.3563H345.916C349.478 40.3563 350.525 40.9883 350.525 42.6735C350.525 44.1481 349.478 45.2014 347.383 45.8334C343.402 46.8867 341.307 48.9933 341.307 51.9425C341.307 53.6278 341.936 56.1557 343.193 59.3156L363.514 110.716L381.95 59.9476C382.997 56.7877 383.416 54.4704 383.416 52.5745C383.416 49.4146 381.531 47.0974 377.969 46.0441C375.246 45.2015 373.989 44.1481 373.989 42.8842C373.989 41.1989 375.874 40.3563 379.436 40.3563H399.129C402.271 40.3563 403.947 41.1989 403.947 42.6735C403.947 43.9375 402.69 44.9908 400.386 45.8334C397.243 46.8867 394.729 48.7827 393.053 51.0999C391.377 53.4171 389.282 58.0516 386.768 64.7927L365.818 121.671C364.771 125.673 363.933 126.094 358.276 126.094H356.81C352.62 126.305 351.782 125.673 350.106 121.671L331.67 74.6937L315.12 121.671C313.653 125.884 313.234 126.094 307.368 126.094C302.55 126.094 301.712 125.673 300.245 122.303L274.686 59.9476Z" fill="#5E26ED"/>
</svg>
